{"title":"All.Is.Lost.2013.DVDScr.XVID.AC3.HQ.Hive-CM8","uid":9496206,"size":1291780621,"categoryP":"video","categoryS":"movies","magnet":"?xt=urn:btih:09852fdf66f70f1beceb8d5b448e65626991cf10&amp;dn=All.Is.Lost.2013.DVDScr.XVID.AC3.HQ.Hive-CM8&amp;tr=udp%3A%2F%2Ftracker.openbittorrent.com%3A80&amp;tr=udp%3A%2F%2Fopen.demonii.com%3A1337&amp;tr=udp%3A%2F%2Ftracker.coppersurfer.tk%3A6969&amp;tr=udp%3A%2F%2Fexodus.desync.com%3A6969","seeders":1,"leechers":0,"uploader":"NewSky005","files":6,"time":1390119008,"description":"All.Is.Lost.2013.DVDScr.XVID.AC3.HQ.Hive-CM8\n\nThx Hive\n\nCM8 Doing It Right The First Time\n\n\nSource: DVDScr DVD-R\nBig Thanks DRs\n\nVideo:\n\ngot the next DVDScr, Quality was ok, fixed rgb,brightness,sharpness and denoise\ngot very nice\nenjoy\n\nVideo: 720x304 @bitrate 1400 2pass\nAudio: English AC3 2.0 Stereo\nSample: yes included\n\n\nWANTED:\n\nam still looking for all DVD-Scr DVD-R i havent done yet\nthis includes the ones that are already out eg: wolf,mitty,her,book thief\nsince they dont look like they been done from a real dvd-r\nso if you have them and you want to share, you know how to find me\nthx\n\n\n &lt;a href=&quot;\nhttp://www.imdb.com/title/tt2017038/&quot; rel=&quot;nofollow&quot; target=&quot;_NEW&quot;&gt;\nhttp://www.imdb.com/title/tt2017038/&lt;/a&gt;\n\n\n\nQuote:\nGeneral\nComplete name                  : All.Is.Lost.2013.DVDScr.XVID.AC3.HQ.Hive-CM8.avi\nFormat                         : AVI\nFormat/Info                    : Audio Video Interleave\nFile size                      : 1.18 GiB\nDuration                       : 1h 45mn\nOverall bit rate               : 1 600 Kbps\nWriting application            : Nandub v1.0rc2\nWriting library                : Nandub build 1853/release\n\nVideo\nID                             : 0\nFormat                         : MPEG-4 Visual\nFormat profile                 : Advanced Simple@L5\nFormat settings, BVOP          : 2\nFormat settings, QPel          : Yes\nFormat settings, GMC           : No warppoints\nFormat settings, Matrix        : Default (H.263)\nMuxing mode                    : Packed bitstream\nCodec ID                       : XVID\nCodec ID/Hint                  : XviD\nDuration                       : 1h 45mn\nBit rate                       : 1 398 Kbps\nWidth                          : 720 pixels\nHeight                         : 304 pixels\nDisplay aspect ratio           : 2.35:1\nFrame rate                     : 23.976 fps\nColor space                    : YUV\nChroma subsampling             : 4:2:0\nBit depth                      : 8 bits\nScan type                      : Progressive\nCompression mode               : Lossy\nBits/(Pixel*Frame)             : 0.266\nStream size                    : 1.03 GiB (87%)\nWriting library                : XviD 1.2.1 (UTC 2008-12-04)\n\nAudio\nID                             : 1\nFormat                         : AC-3\nFormat/Info                    : Audio Coding 3\nMode extension                 : CM (complete main)\nFormat settings, Endianness    : Big\nCodec ID                       : 2000\nDuration                       : 1h 45mn\nBit rate mode                  : Constant\nBit rate                       : 192 Kbps\nChannel(s)                     : 2 channels\nChannel positions              : Front: L R\nSampling rate                  : 48.0 KHz\nBit depth                      : 16 bits\nCompression mode               : Lossy\nStream size                    : 145 MiB (12%)\nAlignment                      : Split accross interleaves\nInterleave, duration           : 42 ms (1.00 video frame)\nInterleave, preload duration   : 500 ms\n\nPlot:\n\nAfter a collision with a shipping container at sea, a resourceful sailor finds himself,\ndespite all efforts to the contrary, staring his mortality in the face.\n\n\nScreens &lt;a href=&quot;\nhttp://h33t.to/torrent/6112826/all-is-lost-2013-dvdscr-xvid-ac3-hq-hive-cm8&quot; rel=&quot;nofollow&quot; target=&quot;_NEW&quot;&gt;\nhttp://h33t.to/torrent/6112826/all-is-lost-2013-dvdscr-xvid-ac3-hq-hive-cm8&lt;/a&gt;","torrent":{"xt":"urn:btih:09852fdf66f70f1beceb8d5b448e65626991cf10","amp;dn":"All.Is.Lost.2013.DVDScr.XVID.AC3.HQ.Hive-CM8","amp;tr":["udp%3A%2F%2Ftracker.openbittorrent.com%3A80","udp%3A%2F%2Fopen.demonii.com%3A1337","udp%3A%2F%2Ftracker.coppersurfer.tk%3A6969","udp%3A%2F%2Fexodus.desync.com%3A6969"],"infoHash":"09852fdf66f70f1beceb8d5b448e65626991cf10","infoHashBuffer":{"type":"Buffer","data":[9,133,47,223,102,247,15,27,236,235,141,91,68,142,101,98,105,145,207,16]},"announce":[],"urlList":[]}}